<svg t="1736854066070" class="icon" viewBox="0 0 1024 1024" version="1.1" xmlns="http://www.w3.org/2000/svg" p-id="4684"
    width="200" height="200">
    <path
        d="M904 896h-784a40 40 0 0 1 0-80H128V208a80 80 0 0 1 80-80h320a80 80 0 0 1 80 80v112h208a80 80 0 0 1 80 80v416h8a40 40 0 0 1 0 80zM480 208H256a48 48 0 0 0-48 48v560h320V256a48 48 0 0 0-48-48z m336 240a48 48 0 0 0-48-48H608v416h208V448z"
        fill="#333333" p-id="4685"></path>
    <path d="M312 320h112a40 40 0 0 1 40 40V400H272v-40a40 40 0 0 1 40-40z" fill="#009944" p-id="4686"></path>
    <path d="M312 464h112a40 40 0 0 1 40 40V544H272v-40a40 40 0 0 1 40-40z" fill="#009944" p-id="4687"></path>
</svg>